<?xml version="1.0" encoding="UTF-8" standalone="no"?>
<svg
   id="visual"
   viewBox="0 0 1800 314.15112"
   width="1800"
   height="314.15112"
   version="1.1"
   sodipodi:docname="wave-haikei.svg"
   xmlns:inkscape="http://www.inkscape.org/namespaces/inkscape"
   xmlns:sodipodi="http://sodipodi.sourceforge.net/DTD/sodipodi-0.dtd"
   xmlns="http://www.w3.org/2000/svg"
   xmlns:svg="http://www.w3.org/2000/svg">
  <defs
     id="defs1041" />
  <sodipodi:namedview
     id="namedview1039"
     pagecolor="#ffffff"
     bordercolor="#000000"
     borderopacity="0.25"
     inkscape:showpageshadow="2"
     inkscape:pageopacity="0.0"
     inkscape:pagecheckerboard="0"
     inkscape:deskcolor="#d1d1d1"
     showgrid="false" />
  <path
     id="path1036"
     d="m 0,0 v 306 l 9.3007812,-2 c 9.3999908,-2 27.9984568,-5.99922 46.8984378,-8.69922 18.799981,-2.6 37.801581,-3.99999 56.601561,2 18.89998,6 37.49924,13.39844 56.19922,13.89844 18.69998,0.5 37.30002,-5.89922 56,-10.69922 39.5141,-7.36173 76.78521,1.61663 112.80078,7.5 18.89998,3 37.49924,4.00078 56.19922,0.30078 18.69998,-3.6 37.30002,-6.00001 56,-12.5 18.69998,-6.49999 37.29924,-11.10156 56.19922,-10.10156 18.79998,1 37.80158,11.60078 56.60156,11.80078 18.89998,0.2 37.49924,-10.2 56.19922,-7.5 18.69998,2.7 37.30002,10.30079 56,17.30078 18.69998,6.99999 37.29924,7.4 56.19922,6.5 18.79998,-0.8 36.74689,-14.0918 55.54687,-18.0918 C 825.30184,287.49353 863.64695,312.38413 900,306 l 9.30078,-2 c 9.4,-2 27.99846,-5.99922 46.89844,-8.69922 18.79998,-2.6 37.80159,-3.99999 56.60158,2 18.9,6 37.4992,13.39844 56.1992,13.89844 18.7,0.5 37.3,-5.89922 56,-10.69922 39.5141,-7.36173 76.7852,1.61663 112.8008,7.5 18.9,3 37.4992,4.00078 56.1992,0.30078 18.7,-3.6 37.3,-6.00001 56,-12.5 18.7,-6.49999 37.2992,-11.10156 56.1992,-10.10156 18.8,1 37.8016,11.60078 56.6016,11.80078 18.9,0.2 37.4992,-10.2 56.1992,-7.5 18.7,2.7 37.3,10.30079 56,17.30078 18.7,6.99999 37.2992,7.4 56.1992,6.5 18.8,-0.8 36.7469,-14.0918 55.5469,-18.0918 C 1725.3019,287.49353 1763.6469,312.38413 1800,306 V 0 H 1790.6992 1744 1687.8008 1631.1992 1575 1519 1462.8008 1406.1992 1350 1294 1237.8008 1181.1992 1125 1069 1012.8008 956.19922 909.30078 900 890.69922 844 787.80078 731.19922 675 619 562.80078 506.19922 450 394 337.80078 281.19922 225 169 112.80078 56.199219 9.3007812 Z"
     style="fill:#203e69;fill-opacity:1" />
</svg>
