<svg id="visual" viewBox="0 0 900 600" width="900" height="600" xmlns="http://www.w3.org/2000/svg" xmlns:xlink="http://www.w3.org/1999/xlink" version="1.1"><path d="M0 302L9.3 300C18.7 298 37.3 294 56.2 291.3C75 288.7 94 287.3 112.8 293.3C131.7 299.3 150.3 312.7 169 313.2C187.7 313.7 206.3 301.3 225 296.5C243.7 291.7 262.3 294.3 281.2 298.2C300 302 319 307 337.8 310C356.7 313 375.3 314 394 310.3C412.7 306.7 431.3 298.3 450 291.8C468.7 285.3 487.3 280.7 506.2 281.7C525 282.7 544 289.3 562.8 289.5C581.7 289.7 600.3 283.3 619 286C637.7 288.7 656.3 300.3 675 307.3C693.7 314.3 712.3 316.7 731.2 315.8C750 315 769 311 787.8 307C806.7 303 825.3 299 844 295C862.7 291 881.3 287 890.7 285L900 283L900 0L890.7 0C881.3 0 862.7 0 844 0C825.3 0 806.7 0 787.8 0C769 0 750 0 731.2 0C712.3 0 693.7 0 675 0C656.3 0 637.7 0 619 0C600.3 0 581.7 0 562.8 0C544 0 525 0 506.2 0C487.3 0 468.7 0 450 0C431.3 0 412.7 0 394 0C375.3 0 356.7 0 337.8 0C319 0 300 0 281.2 0C262.3 0 243.7 0 225 0C206.3 0 187.7 0 169 0C150.3 0 131.7 0 112.8 0C94 0 75 0 56.2 0C37.3 0 18.7 0 9.3 0L0 0Z" fill="#203e69" stroke-linecap="round" stroke-linejoin="miter"></path></svg>