<?xml version="1.0" encoding="UTF-8" standalone="no"?>
<!-- Created with Inkscape (http://www.inkscape.org/) -->

<svg
   preserveAspectRatio="xMinYMin slice"
   viewBox="0 0 121.12706 29.117607"
   version="1.1"
   id="svg5"
   xml:space="preserve"
   xmlns:inkscape="http://www.inkscape.org/namespaces/inkscape"
   xmlns:sodipodi="http://sodipodi.sourceforge.net/DTD/sodipodi-0.dtd"
   xmlns="http://www.w3.org/2000/svg"
   xmlns:svg="http://www.w3.org/2000/svg"><sodipodi:namedview
     id="namedview7"
     pagecolor="#ffffff"
     bordercolor="#000000"
     borderopacity="0.25"
     inkscape:showpageshadow="2"
     inkscape:pageopacity="0.0"
     inkscape:pagecheckerboard="0"
     inkscape:deskcolor="#d1d1d1"
     inkscape:document-units="mm"
     showgrid="false" /><defs
     id="defs2" /><g
     inkscape:label="Ebene 1"
     inkscape:groupmode="layer"
     id="layer1"
     transform="translate(-40.420793,-119.01847)"><path
       style="fill:#b000ff;fill-opacity:1;stroke-width:0.352778"
       d="m 154.35342,147.15519 c -6.08081,-1.80355 -18.49847,-3.79493 -30.86806,-4.9502 l -7.9375,-0.74134 -13.60384,-0.17578 c -14.1261,-0.18253 -26.584009,0.22156 -35.349517,1.1466 -5.458033,0.576 -11.652109,1.44626 -13.841085,1.94464 -0.776111,0.17671 -1.845682,0.32517 -2.376824,0.32991 l -0.965714,0.009 -0.933836,-1.49931 c -0.513609,-0.82462 -0.981635,-1.55523 -1.040057,-1.62359 -0.05842,-0.0684 -1.234978,0.0774 -2.614569,0.32397 l -2.508347,0.44827 -0.494092,-0.50037 c -0.271751,-0.2752 -0.697739,-1.26743 -0.94664,-2.20496 l -0.452548,-1.70459 0.605969,-0.33911 0.605968,-0.33912 -0.167885,-2.26336 -0.167886,-2.26336 1.214917,-0.57651 1.214916,-0.57652 -0.144326,-0.93725 c -0.639317,-4.1517 -0.468822,-5.33029 0.875125,-6.04956 1.890753,-1.0119 16.457474,-2.89748 31.226385,-4.04207 16.793993,-1.30155 27.974276,-1.72522 39.334726,-1.49057 l 10.05416,0.20766 8.46667,0.89806 c 4.65667,0.49394 11.05443,1.13139 14.21725,1.41656 3.16282,0.28517 5.87887,0.59778 6.03568,0.69469 0.1568,0.0969 0.39048,1.07284 0.51928,2.16874 l 0.23418,1.99253 -0.40403,0.48683 c -0.22222,0.26776 -0.91474,0.48683 -1.53893,0.48683 h -1.1349 l -0.38417,0.84316 -0.38417,0.84316 1.57889,0.44206 c 0.8684,0.24314 1.95323,0.73651 2.41074,1.0964 l 0.83185,0.65432 -0.18948,1.41264 -0.18947,1.41264 0.92416,0.72694 c 0.50829,0.39983 1.04911,1.20913 1.20182,1.79845 l 0.27765,1.0715 1.74385,0.582 1.74384,0.582 0.24073,0.88195 c 0.42761,1.56658 0.34,3.53881 -0.16581,3.73291 -0.26228,0.10065 -0.42002,0.53222 -0.35055,0.95907 0.14452,0.88791 -1.57888,3.55879 -2.3634,3.66276 -0.28234,0.0374 -2.10085,-0.40283 -4.04112,-0.97831 z"
       id="path3044"
       inkscape:export-filename="markerStroke.svg"
       inkscape:export-xdpi="96"
       inkscape:export-ydpi="96" /></g></svg>
