<?xml version="1.0" encoding="UTF-8" standalone="no"?>
<svg
   id="visual"
   viewBox="0 0 900 314.15033"
   width="900"
   height="314.15033"
   version="1.1"
   sodipodi:docname="wave-haikei.svg"
   xmlns:inkscape="http://www.inkscape.org/namespaces/inkscape"
   xmlns:sodipodi="http://sodipodi.sourceforge.net/DTD/sodipodi-0.dtd"
   xmlns="http://www.w3.org/2000/svg"
   xmlns:svg="http://www.w3.org/2000/svg">
  <defs
     id="defs1041" />
  <sodipodi:namedview
     id="namedview1039"
     pagecolor="#ffffff"
     bordercolor="#000000"
     borderopacity="0.25"
     inkscape:showpageshadow="2"
     inkscape:pageopacity="0.0"
     inkscape:pagecheckerboard="0"
     inkscape:deskcolor="#d1d1d1"
     showgrid="false" />
  <path
     d="m 0,306 9.3,-2 c 9.4,-2 28,-6 46.9,-8.7 18.8,-2.6 37.8,-4 56.6,2 18.9,6 37.5,13.4 56.2,13.9 18.7,0.5 37.3,-5.9 56,-10.7 39.51414,-7.36174 76.78439,1.61662 112.8,7.5 18.9,3 37.5,4 56.2,0.3 18.7,-3.6 37.3,-6 56,-12.5 18.7,-6.5 37.3,-11.1 56.2,-10.1 18.8,1 37.8,11.6 56.6,11.8 18.9,0.2 37.5,-10.2 56.2,-7.5 18.7,2.7 37.3,10.3 56,17.3 18.7,7 37.3,7.4 56.2,6.5 C 750,313 767.94549,299.70962 786.74549,295.70962 825.30127,287.49416 863.64691,312.38414 900,306 V 0 H 890.7 844 787.8 731.2 675 619 562.8 506.2 450 394 337.8 281.2 225 169 112.8 56.2 9.3 0 Z"
     fill="#203e69"
     stroke-linecap="round"
     stroke-linejoin="miter"
     id="path1036"
     sodipodi:nodetypes="ccccscccsccssccccccccccccccccccccccc"
     inkscape:export-filename="..\..\styles\css\backgrounds\path1036.svg"
     inkscape:export-xdpi="96"
     inkscape:export-ydpi="96" />
</svg>
