<?xml version="1.0" encoding="UTF-8" standalone="no"?>
<svg
   id="visual"
   viewBox="0 0 1800 246.09216"
   width="1800"
   height="246.09216"
   version="1.1"
   sodipodi:docname="wave-haikei.svg"
   xmlns:inkscape="http://www.inkscape.org/namespaces/inkscape"
   xmlns:sodipodi="http://sodipodi.sourceforge.net/DTD/sodipodi-0.dtd"
   xmlns="http://www.w3.org/2000/svg"
   xmlns:svg="http://www.w3.org/2000/svg">
  <defs
     id="defs7" />
  <sodipodi:namedview
     id="namedview5"
     pagecolor="#ffffff"
     bordercolor="#000000"
     borderopacity="0.25"
     inkscape:showpageshadow="2"
     inkscape:pageopacity="0.0"
     inkscape:pagecheckerboard="0"
     inkscape:deskcolor="#d1d1d1"
     showgrid="false" />
  <path
     id="path2"
     d="m 0,0 v 238 c 18.586076,10.05179 47.037656,-16.66273 69.199219,-7 11.499988,5.29999 23.101574,4.69922 34.601561,7.69922 11.49999,3 22.89845,-0.39844 34.39844,-3.89844 11.49999,-3.5 23.10079,-3.10156 34.80078,1.39844 11.69999,4.49999 23.30079,7.10078 34.80078,9.30078 11.49999,2.2 22.89845,-2.2 34.39844,-5.5 11.49999,-3.3 23.10079,0.29922 34.80078,-1.30078 11.69999,-1.7 23.30079,-2.69844 34.80078,0.10156 11.49999,2.9 22.89845,3.5 34.39844,4 11.49999,0.5 23.10157,0.89999 34.60156,-7.5 11.49999,-8.29999 22.89845,-7.3 34.39844,-5.5 11.49999,1.9 23.10079,4.5 34.80078,5 11.69999,0.5 23.30079,-3.10156 34.80078,-4.60156 11.49999,-1.5 22.89845,-0.89921 34.39844,4.80078 11.49999,5.69999 23.10157,2.30078 34.60156,4.30078 11.49999,2 22.89845,3.4 34.39844,1.5 11.49999,-1.8 23.10079,-2.80157 34.80078,-6.60156 11.69999,-3.9 23.30079,5.50078 34.80078,2.30078 11.49999,-3.2 22.89845,-6.79922 34.39844,-6.69922 11.49999,0.2 23.10079,4.20001 34.80078,8.5 11.69999,4.4 23.30079,-3.00157 34.80078,-7.60156 11.49999,-4.7 22.89845,-4.7 34.39844,-4 11.49999,0.6 23.10157,12.00078 34.60156,12.80078 11.49999,0.8 22.89845,-8.79922 34.39844,-11.19922 11.49999,-2.3 23.1,2.69922 29,6.19922 L 900,238 c 18.58607,10.05178 47.03765,-16.66273 69.19922,-7 11.49999,5.29999 23.10157,4.69922 34.60158,7.69922 11.5,3 22.8984,-0.39844 34.3984,-3.89844 11.5,-3.5 23.1008,-3.10156 34.8008,1.39844 11.7,4.49999 23.3008,7.10078 34.8008,9.30078 11.5,2.2 22.8984,-2.2 34.3984,-5.5 11.5,-3.3 23.1008,0.29922 34.8008,-1.30078 11.7,-1.7 23.3008,-2.69844 34.8008,0.10156 11.5,2.9 22.8984,3.5 34.3984,4 11.5,0.5 23.1016,0.89999 34.6016,-7.5 11.5,-8.29999 22.8984,-7.3 34.3984,-5.5 11.5,1.9 23.1008,4.5 34.8008,5 11.7,0.5 23.3008,-3.10156 34.8008,-4.60156 11.5,-1.5 22.8984,-0.89921 34.3984,4.80078 11.5,5.69999 23.1016,2.30078 34.6016,4.30078 11.5,2 22.8984,3.4 34.3984,1.5 11.5,-1.8 23.1008,-2.80157 34.8008,-6.60156 11.7,-3.9 23.3008,5.50078 34.8008,2.30078 11.5,-3.2 22.8984,-6.79922 34.3984,-6.69922 11.5,0.2 23.1008,4.20001 34.8008,8.5 11.7,4.4 23.3008,-3.00157 34.8008,-7.60156 11.5,-4.7 22.8984,-4.7 34.3984,-4 11.5,0.6 23.1016,12.00078 34.6016,12.80078 11.5,0.8 22.8984,-8.79922 34.3984,-11.19922 11.5,-2.3 23.1,2.69922 29,6.19922 L 1800,238 V 0 h -5.8008 -29 -34.3984 -34.6016 -34.3984 H 1627 1592.1992 1557.8008 1523 1488.1992 1453.8008 1419.1992 1384.8008 1350 1315.1992 1280.8008 1246.1992 1211.8008 1177 1142.1992 1107.8008 1073 h -34.8008 -34.3984 -34.60158 -34.39844 -29 H 900 h -5.80078 -29 H 830.80078 796.19922 761.80078 727 692.19922 657.80078 623 588.19922 553.80078 519.19922 484.80078 450 415.19922 380.80078 346.19922 311.80078 277 242.19922 207.80078 173 138.19922 103.80078 69.199219 34.800781 5.8007812 Z"
     style="fill:#203e69;fill-opacity:1" />
</svg>
