<?xml version="1.0" encoding="UTF-8" standalone="no"?>
<svg
   id="visual"
   viewBox="0 0 900 246.09216"
   width="900"
   height="246.09216"
   version="1.1"
   sodipodi:docname="wave-haikei.svg"
   xmlns:inkscape="http://www.inkscape.org/namespaces/inkscape"
   xmlns:sodipodi="http://sodipodi.sourceforge.net/DTD/sodipodi-0.dtd"
   xmlns="http://www.w3.org/2000/svg"
   xmlns:svg="http://www.w3.org/2000/svg">
  <defs
     id="defs7" />
  <sodipodi:namedview
     id="namedview5"
     pagecolor="#ffffff"
     bordercolor="#000000"
     borderopacity="0.25"
     inkscape:showpageshadow="2"
     inkscape:pageopacity="0.0"
     inkscape:pagecheckerboard="0"
     inkscape:deskcolor="#d1d1d1"
     showgrid="false" />
  <path
     d="M 0,235.99999 C 18.586095,246.05179 47.038415,219.33726 69.2,229 c 11.5,5.3 23.1,4.7 34.6,7.7 11.5,3 22.9,-0.4 34.4,-3.9 11.5,-3.5 23.1,-3.1 34.8,1.4 11.7,4.5 23.3,9.1 34.8,11.3 11.5,2.2 22.9,-2.2 34.4,-5.5 11.5,-3.3 23.1,-1.7 34.8,-3.3 11.7,-1.7 23.3,-2.7 34.8,0.1 11.5,2.9 22.9,5.5 34.4,6 11.5,0.5 23.1,-1.1 34.6,-9.5 11.5,-8.3 22.9,-9.3 34.4,-7.5 11.5,1.9 23.1,6.5 34.8,7 11.7,0.5 23.3,-3.1 34.8,-4.6 11.5,-1.5 22.9,-0.9 34.4,4.8 11.5,5.7 23.1,2.3 34.6,4.3 11.5,2 22.9,5.4 34.4,3.5 11.5,-1.8 23.1,-4.8 34.8,-8.6 11.7,-3.9 23.3,5.5 34.8,2.3 11.5,-3.2 22.9,-8.8 34.4,-8.7 11.5,0.2 23.1,6.2 34.8,10.5 11.7,4.4 23.3,-3 34.8,-7.6 11.5,-4.7 22.9,-6.7 34.4,-6 11.5,0.6 23.1,14 34.6,14.8 11.5,0.8 22.9,-10.8 34.4,-13.2 11.5,-2.3 23.1,4.7 29,8.2 L 900,236 V 0 h -5.8 -29 H 830.8 796.2 761.8 727 692.2 657.8 623 588.2 553.8 519.2 484.8 450 415.2 380.8 346.2 311.8 277 242.2 207.8 173 138.2 103.8 69.2 34.8 5.8 0 Z"
     fill="#203e69"
     stroke-linecap="round"
     stroke-linejoin="miter"
     id="path2"
     sodipodi:nodetypes="ccsssssccsccssssccsccccsccccccccccccccccccccccccccccccccc"
     inkscape:export-filename="path3.svg"
     inkscape:export-xdpi="96"
     inkscape:export-ydpi="96" />
</svg>
